<svg id="Layer_1" data-name="Layer 1" xmlns="http://www.w3.org/2000/svg" viewBox="0 0 184 23"><defs><style>.cls-1{fill:#0f0f0f;}.cls-2{fill:#e60a14;}.cls-3{fill:#686565;}</style></defs><polygon class="cls-1" points="151.56 21.76 151.56 1.27 166.37 1.27 166.37 6.08 156.37 6.08 156.37 9.11 166.37 9.11 166.37 13.92 156.37 13.92 156.37 16.95 166.37 16.95 166.37 21.76 151.56 21.76"/><path class="cls-1" d="M138.74,21.75h-7.39V1.27h7.39A12.78,12.78,0,0,1,143,2a10.77,10.77,0,0,1,3.55,2,9.62,9.62,0,0,1,3.3,7.46,9.87,9.87,0,0,1-.88,4.24A10.19,10.19,0,0,1,146.58,19,10.45,10.45,0,0,1,143.05,21a12.78,12.78,0,0,1-4.31.72M136.16,17h2.58a7.58,7.58,0,0,0,2.82-.47,5.61,5.61,0,0,0,2-1.23,5,5,0,0,0,1.14-1.74,5.43,5.43,0,0,0,0-4,5.09,5.09,0,0,0-1.14-1.75,5.61,5.61,0,0,0-2-1.23,7.79,7.79,0,0,0-2.82-.46h-2.58Z"/><path class="cls-2" d="M129.65,11.56a10.25,10.25,0,0,1-3,7.21,10,10,0,0,1-7.19,3,9.84,9.84,0,0,1-3.94-.8,10,10,0,0,1-3.2-2.19,10.38,10.38,0,0,1-2.18-3.24,9.91,9.91,0,0,1-.79-4,10.14,10.14,0,0,1,.78-4,10.65,10.65,0,0,1,2.14-3.27,10.39,10.39,0,0,1,3.21-2.23,9.65,9.65,0,0,1,4-.83h10.14Zm-4.73,0V6h-5.41a5.15,5.15,0,0,0-2.09.43,5.28,5.28,0,0,0-1.71,1.18,5.62,5.62,0,0,0-1.15,1.78,5.46,5.46,0,0,0-.43,2.17,5.54,5.54,0,0,0,.41,2.16,5.43,5.43,0,0,0,1.14,1.73,5.53,5.53,0,0,0,1.71,1.15,5.47,5.47,0,0,0,4.25,0,5.91,5.91,0,0,0,1.71-1.15,5.14,5.14,0,0,0,1.15-1.73,5.54,5.54,0,0,0,.42-2.16"/><path class="cls-1" d="M107.5,15.17A10.08,10.08,0,0,1,106,17.86a10.58,10.58,0,0,1-2.2,2.08,10.06,10.06,0,0,1-13-1.17,10.32,10.32,0,0,1-2.14-3.25,10.14,10.14,0,0,1-.78-4,9.88,9.88,0,0,1,.8-4A10.55,10.55,0,0,1,90.87,4.3a10.4,10.4,0,0,1,3.21-2.21,9.82,9.82,0,0,1,7-.33,11,11,0,0,1,2.7,1.34A10.24,10.24,0,0,1,106,5.17a10.59,10.59,0,0,1,1.51,2.69H102a5.74,5.74,0,0,0-1.77-1.36,5.3,5.3,0,0,0-4.34-.07,5.28,5.28,0,0,0-1.71,1.18,5.8,5.8,0,0,0-1.15,1.78,5.46,5.46,0,0,0-.43,2.17A5.73,5.73,0,0,0,93,13.72,5.23,5.23,0,0,0,95.9,16.6a5.44,5.44,0,0,0,4.4-.07,5.6,5.6,0,0,0,1.79-1.36Z"/><polygon class="cls-1" points="73.83 1.28 78.56 9.09 83.2 1.24 88.72 1.22 80.94 14.38 80.97 21.76 76.24 21.77 76.21 14.39 68.33 1.3 73.83 1.28"/><polygon class="cls-1" points="48.6 1.27 55.29 15.79 61.94 1.27 66.9 1.27 66.9 21.76 62.17 21.76 62.17 12.09 57.86 21.76 52.68 21.76 48.37 12.09 48.37 21.76 43.64 21.76 43.64 1.27 48.6 1.27"/><path class="cls-1" d="M31.66,1.18A10.34,10.34,0,1,0,42,11.51,10.33,10.33,0,0,0,31.66,1.18m0,15.73a5.4,5.4,0,1,1,5.39-5.4,5.4,5.4,0,0,1-5.39,5.4"/><path class="cls-1" d="M10.23,9.7h9.49l-.12,2.48a11.06,11.06,0,0,1-.84,3.89,9.77,9.77,0,0,1-2,3,8.89,8.89,0,0,1-2.94,2,9.58,9.58,0,0,1-3.71.71,10.12,10.12,0,0,1-4-.8,9.74,9.74,0,0,1-3.21-2.19A10.37,10.37,0,0,1,0,11.56a10.63,10.63,0,0,1,.75-4A10.44,10.44,0,0,1,2.84,4.3,9.84,9.84,0,0,1,6,2.09a9.59,9.59,0,0,1,4-.82,10,10,0,0,1,2.8.39,9.18,9.18,0,0,1,2.49,1.12,9,9,0,0,1,2.06,1.8A8.85,8.85,0,0,1,18.8,7H13.16a4.24,4.24,0,0,0-1.73-.85A8.14,8.14,0,0,0,9.93,6a4.82,4.82,0,0,0-2,.43A5.25,5.25,0,0,0,6.24,7.61,5.72,5.72,0,0,0,5.13,9.37a5.64,5.64,0,0,0-.4,2.13,5.67,5.67,0,0,0,1.51,3.92A5.25,5.25,0,0,0,7.89,16.6a5,5,0,0,0,2,.43,6.33,6.33,0,0,0,1-.09,5,5,0,0,0,1.21-.36,4.46,4.46,0,0,0,1.25-.78,3.88,3.88,0,0,0,1-1.37H10.23Z"/><path class="cls-3" d="M174.83,9.13H174L169.67,2.5V9.13h-.79V1.24h.79L174,7.87V1.24h.79Z"/><path class="cls-3" d="M182.83,3.55a2.72,2.72,0,0,0-1-1.23,2.9,2.9,0,0,0-1.63-.44,3.12,3.12,0,0,0-1.58.4,2.93,2.93,0,0,0-1.1,1.16,3.61,3.61,0,0,0-.41,1.74,3.65,3.65,0,0,0,.41,1.75,2.93,2.93,0,0,0,1.1,1.16,3.13,3.13,0,0,0,1.58.41,3.07,3.07,0,0,0,1.49-.36,2.7,2.7,0,0,0,1.06-1,3.35,3.35,0,0,0,.46-1.54h-3.32V4.94H184v.58a4.13,4.13,0,0,1-.56,1.88,3.77,3.77,0,0,1-3.28,1.81,3.89,3.89,0,0,1-2-.51,3.75,3.75,0,0,1-1.41-1.44,4.19,4.19,0,0,1-.51-2.08,4.22,4.22,0,0,1,.51-2.08,3.73,3.73,0,0,1,1.41-1.43,3.9,3.9,0,0,1,2-.52,3.86,3.86,0,0,1,2.22.64,3.51,3.51,0,0,1,1.37,1.76Z"/></svg>